<svg xmlns="http://www.w3.org/2000/svg" viewBox="50 50 412 412" fill="none"><g> <path d="M109.317 322.213L96.9357 322.213C98.3449 296.847 101.516 275.859 106.448 259.25C111.38 242.641 121.597 219.54 137.099 189.946C149.178 167.196 157.03 149.732 160.654 137.552C164.277 125.372 166.089 113.041 166.089 100.559C166.089 74.9918 159.295 54.6584 145.706 39.5594C132.116 24.4604 115.457 16.9109 95.7278 16.9109C78.2129 16.9109 64.4225 21.038 54.3565 29.2921C44.2905 37.5462 39.2574 46.505 39.2574 56.1683C39.2574 63.6172 42.2773 72.7773 48.3169 83.6485C54.3565 94.5198 57.3763 102.774 57.3763 108.411C57.3763 115.658 55.0611 121.748 50.4307 126.681C45.8004 131.613 40.1634 134.079 33.5198 134.079C25.0644 134.079 17.3639 129.902 10.4183 121.547C3.47278 113.192 0 101.566 0 86.6684C0 63.9192 9.76404 43.7871 29.2921 26.2723C48.8202 8.75743 75.2938 0 108.713 0C150.185 0 180.685 12.0792 200.213 36.2376C214.708 53.9538 221.956 73.5825 221.956 95.1238C221.956 109.82 218.684 124.919 212.141 140.421C205.598 155.923 193.167 174.142 174.847 195.079C145.655 228.096 127.788 251.499 121.245 265.29C114.702 279.08 110.726 298.055 109.317 322.213L109.317 322.213ZM105.089 359.659C114.551 359.659 122.554 362.93 129.097 369.473C135.639 376.016 138.911 384.019 138.911 393.481C138.911 402.741 135.589 410.643 128.946 417.186C122.302 423.729 114.35 427 105.089 427C95.8284 427 87.9266 423.729 81.3837 417.186C74.8408 410.643 71.5693 402.741 71.5693 393.481C71.5693 384.019 74.8408 376.016 81.3837 369.473C87.9266 362.93 95.8284 359.659 105.089 359.659L105.089 359.659Z" fill="#000000" transform="translate(144 43)" /> </g></svg>
